<svg xmlns="http://www.w3.org/2000/svg" xmlns:xlink="http://www.w3.org/1999/xlink" viewBox="0 0 58.91 30.22"><defs><style>.cls-1{mask:url(#mask);filter:url(#luminosity-noclip-2);}.cls-2{mix-blend-mode:multiply;fill:url(#Fade_to_Black_2);}.cls-3{isolation:isolate;}.cls-4{fill:url(#linear-gradient);}.cls-5{fill:#231f20;}.cls-6{fill:url(#linear-gradient-2);}.cls-7{fill:#fff;}.cls-8{fill:url(#linear-gradient-3);}.cls-9{fill:url(#linear-gradient-4);}.cls-10{fill:url(#linear-gradient-5);}.cls-11{fill:url(#linear-gradient-6);}.cls-12{fill:url(#linear-gradient-7);}.cls-13{opacity:0.39;mix-blend-mode:screen;fill:url(#linear-gradient-8);}.cls-14{mask:url(#mask-2);}.cls-15{fill:url(#Fade_to_Black);}.cls-16{fill:url(#linear-gradient-10);}.cls-17{fill:#e6e7e8;}.cls-18{fill:url(#linear-gradient-11);}.cls-19{filter:url(#luminosity-noclip);}</style><filter id="luminosity-noclip" x="6.25" y="-8285.95" width="46.43" height="32766" filterUnits="userSpaceOnUse" color-interpolation-filters="sRGB"><feFlood flood-color="#fff" result="bg"/><feBlend in="SourceGraphic" in2="bg"/></filter><mask id="mask" x="6.25" y="-8285.95" width="46.43" height="32766" maskUnits="userSpaceOnUse"><g class="cls-19"/></mask><linearGradient id="Fade_to_Black_2" x1="29.46" y1="28.87" x2="29.46" y2="28.35" gradientUnits="userSpaceOnUse"><stop offset="0" stop-color="#fff"/><stop offset="0.06" stop-color="#dadada"/><stop offset="0.16" stop-color="#a7a7a7"/><stop offset="0.26" stop-color="#7b7b7b"/><stop offset="0.37" stop-color="#555"/><stop offset="0.48" stop-color="#363636"/><stop offset="0.59" stop-color="#1e1e1e"/><stop offset="0.71" stop-color="#0d0d0d"/><stop offset="0.84" stop-color="#030303"/><stop offset="1"/></linearGradient><linearGradient id="linear-gradient" x1="23.37" y1="-4.85" x2="35.54" y2="34.97" gradientUnits="userSpaceOnUse"><stop offset="0" stop-color="#a6a8ab"/><stop offset="0.31" stop-color="#bbbcbf"/><stop offset="1" stop-color="#e6e7e8"/></linearGradient><linearGradient id="linear-gradient-2" x1="8.42" y1="-1.37" x2="50.49" y2="31.5" xlink:href="#linear-gradient"/><linearGradient id="linear-gradient-3" x1="29.45" y1="30.22" x2="29.45" y2="29.02" gradientUnits="userSpaceOnUse"><stop offset="0" stop-color="#231f20"/><stop offset="0.11" stop-color="#434143"/><stop offset="0.24" stop-color="#605f61"/><stop offset="0.37" stop-color="#767679"/><stop offset="0.51" stop-color="#86878a"/><stop offset="0.66" stop-color="#8f9194"/><stop offset="0.85" stop-color="#929497"/><stop offset="1" stop-color="#d0d2d3"/></linearGradient><linearGradient id="linear-gradient-4" x1="29.15" y1="1.24" x2="29.75" y2="1.24" gradientUnits="userSpaceOnUse"><stop offset="0"/><stop offset="1" stop-color="#262626"/></linearGradient><linearGradient id="linear-gradient-5" x1="29.22" y1="1.24" x2="29.69" y2="1.24" xlink:href="#linear-gradient-4"/><linearGradient id="linear-gradient-6" x1="29.22" y1="1.24" x2="29.69" y2="1.24" gradientUnits="userSpaceOnUse"><stop offset="0" stop-color="#262626"/><stop offset="1"/></linearGradient><linearGradient id="linear-gradient-7" x1="29.29" y1="1.24" x2="29.62" y2="1.24" xlink:href="#linear-gradient-4"/><linearGradient id="linear-gradient-8" x1="29.48" y1="1.27" x2="29.6" y2="1.27" gradientUnits="userSpaceOnUse"><stop offset="0" stop-color="#fff"/><stop offset="0.28" stop-color="#bfe6f6"/><stop offset="0.78" stop-color="#52bae6"/><stop offset="1" stop-color="#26a9e0"/></linearGradient><filter id="luminosity-noclip-2" x="6.25" y="28.35" width="46.43" height="0.51" filterUnits="userSpaceOnUse" color-interpolation-filters="sRGB"><feFlood flood-color="#fff" result="bg"/><feBlend in="SourceGraphic" in2="bg"/></filter><mask id="mask-2" x="6.25" y="28.35" width="46.43" height="0.51" maskUnits="userSpaceOnUse"><g class="cls-1"><rect class="cls-2" x="6.25" y="28.35" width="46.43" height="0.51"/></g></mask><linearGradient id="Fade_to_Black" x1="29.46" y1="28.87" x2="29.46" y2="28.35" gradientUnits="userSpaceOnUse"><stop offset="0" stop-color="#231f20"/><stop offset="0.09" stop-color="#231f20"/><stop offset="1" stop-color="#231f20"/></linearGradient><linearGradient id="linear-gradient-10" y1="28.94" x2="58.91" y2="28.94" gradientUnits="userSpaceOnUse"><stop offset="0" stop-color="#58595b"/><stop offset="0.02" stop-color="#babbbd"/><stop offset="0.02" stop-color="#e6e7e8"/><stop offset="0.11" stop-color="#bbbdbf"/><stop offset="0.53" stop-color="#e6e7e8"/><stop offset="0.89" stop-color="#bbbdbf"/><stop offset="0.98" stop-color="#e6e7e8"/><stop offset="1" stop-color="#6e7072"/></linearGradient><linearGradient id="linear-gradient-11" x1="24.59" y1="28.97" x2="34.31" y2="28.97" gradientUnits="userSpaceOnUse"><stop offset="0" stop-color="#404041"/><stop offset="0.01" stop-color="#585859"/><stop offset="0.02" stop-color="#7c7d7e"/><stop offset="0.04" stop-color="#9b9c9d"/><stop offset="0.05" stop-color="#b2b4b5"/><stop offset="0.07" stop-color="#c3c5c6"/><stop offset="0.09" stop-color="#cdcfd0"/><stop offset="0.11" stop-color="#d0d2d3"/><stop offset="0.5" stop-color="#e6e7e8"/><stop offset="0.9" stop-color="#d0d2d3"/><stop offset="1" stop-color="#404041"/></linearGradient></defs><title>Asset 1</title><g class="cls-3"><g id="Layer_2" data-name="Layer 2"><g id="Layer_1-2" data-name="Layer 1"><rect class="cls-4" x="6.03" width="46.85" height="30.12" rx="1.75" ry="1.75"/><rect class="cls-5" x="6.2" y="0.17" width="46.52" height="29.79" rx="1.58" ry="1.58"/><rect class="cls-6" x="6.36" y="0.33" width="46.18" height="29.45" rx="1.41" ry="1.41"/><rect class="cls-7" x="8.18" y="2.16" width="42.53" height="23.88"/><path class="cls-8" d="M8.28,30.22H50.84c.86,0,8.06-.54,8.06-1.2H0C0,29.68,7.42,30.22,8.28,30.22Z"/><path class="cls-9" d="M29.75,1.24a.29.29,0,0,1-.3.3.3.3,0,1,1,0-.6A.29.29,0,0,1,29.75,1.24Z"/><path class="cls-10" d="M29.45,1.47a.23.23,0,1,1,.24-.23A.23.23,0,0,1,29.45,1.47Z"/><path class="cls-11" d="M29.45,1.47a.23.23,0,1,1,.24-.23A.23.23,0,0,1,29.45,1.47Z"/><path class="cls-12" d="M29.45,1.41a.17.17,0,0,1,0-.34.17.17,0,0,1,0,.34Z"/><path class="cls-13" d="M29.6,1.27a.06.06,0,0,1-.06.06.06.06,0,1,1,0-.12A.06.06,0,0,1,29.6,1.27Z"/><path class="cls-13" d="M29.6,1.27a.06.06,0,0,1-.06.06.06.06,0,1,1,0-.12A.06.06,0,0,1,29.6,1.27Z"/><g class="cls-14"><rect class="cls-15" x="6.25" y="28.35" width="46.43" height="0.51"/></g><rect class="cls-16" y="28.79" width="58.91" height="0.3"/><path class="cls-17" d="M34.31,29c0,.14-.2.26-.44.26H25c-.24,0-.44-.12-.44-.26h0c0-.14.26-.11.5-.11h8.73c.25,0,.49,0,.49.11Z"/><path class="cls-18" d="M34.31,28.9c0,.14-.2.26-.44.26H25c-.24,0-.44-.12-.44-.26h0c0-.14.26-.11.5-.11h8.73c.25,0,.49,0,.49.11Z"/><path class="cls-5" d="M20.52,29.47s-.15.07-.34.07-.33,0-.33-.07.15-.06.33-.06S20.52,29.44,20.52,29.47Z"/><path class="cls-5" d="M39.05,29.49s-.15.07-.33.07-.34,0-.34-.07.15-.07.34-.07S39.05,29.46,39.05,29.49Z"/></g></g></g></svg>